<svg width="52" height="52" viewBox="0 0 52 52" fill="none" xmlns="http://www.w3.org/2000/svg">
<path fill-rule="evenodd" clip-rule="evenodd" d="M18.2087 20.1719L19.9596 21.9228L15.8827 25.9997L19.9596 30.0766L18.2087 31.8276L12.3809 25.9997L18.2087 20.1719Z" fill="#5B63FF"/>
<path fill-rule="evenodd" clip-rule="evenodd" d="M34.8167 20.1719L33.0658 21.9228L37.1427 25.9997L33.0658 30.0766L34.8167 31.8276L40.6445 25.9997L34.8167 20.1719Z" fill="#5B63FF"/>
<path fill-rule="evenodd" clip-rule="evenodd" d="M23.4431 36.2742L27.7765 15.2266L30.2018 15.7259L25.8684 36.7735L23.4431 36.2742Z" fill="#5B63FF"/>
<path fill-rule="evenodd" clip-rule="evenodd" d="M22.8388 5.22394L21.2383 5.64579C17.5581 6.61575 14.2687 8.55962 11.6641 11.1895L10.4529 12.4123L7.80458 11.215C7.05511 12.4807 6.21705 13.9114 5.47625 15.2053C5.04271 15.9625 4.6484 16.6627 4.32691 17.2505C4.55547 17.3701 4.77594 17.4781 4.95664 17.5616L6.85713 18.4395L6.30756 20.4596C5.82805 22.2221 5.57137 24.0791 5.57137 26C5.57137 27.9209 5.82805 29.7779 6.30756 31.5404L6.76697 33.2291L4.50162 34.7988L7.92868 40.8913L10.698 39.8573L11.823 40.9694C14.3639 43.481 17.5373 45.348 21.0785 46.3114L22.576 46.7188L23.1023 49.5238H30.1356L30.6619 46.7188L32.1594 46.3114C35.775 45.3278 39.007 43.4023 41.5739 40.8105L42.7851 39.5877L45.3822 40.7618L48.7364 34.7988L46.471 33.2291L46.9304 31.5404C47.4099 29.7779 47.6666 27.9209 47.6666 26C47.6666 24.0791 47.4099 22.2221 46.9304 20.4596L46.471 18.7709L48.7364 17.2012L45.3822 11.2382L42.7851 12.4123L41.5739 11.1895C38.9693 8.55962 35.6798 6.61575 31.9997 5.64579L30.3991 5.22394L30.027 2.47619H23.211L22.8388 5.22394ZM32.1904 0L32.6308 3.25137C36.7489 4.33677 40.4252 6.51077 43.3333 9.44698L46.4285 8.04762L51.9999 17.9524L49.3198 19.8095C49.8564 21.782 50.1428 23.8575 50.1428 26C50.1428 28.1425 49.8564 30.218 49.3198 32.1905L51.9999 34.0476L46.4285 43.9524L43.3333 42.553C40.4673 45.4467 36.8553 47.6001 32.8095 48.7008L32.1904 52H21.0476L20.4285 48.7008C16.4658 47.6227 12.9192 45.5347 10.0823 42.7304L6.80947 43.9524L1.23804 34.0476L3.91822 32.1905C3.38159 30.218 3.09518 28.1425 3.09518 26C3.09518 23.8575 3.38159 21.782 3.91822 19.8095C3.02482 19.3968 1.23804 18.4476 1.23804 17.9524C1.23804 17.4571 4.95232 11.1429 6.80947 8.04762L9.90471 9.44698C12.8128 6.51077 16.4891 4.33677 20.6072 3.25137L21.0476 0H32.1904Z" fill="#5B63FF"/>
</svg>
