<svg width="112" height="112" viewBox="0 0 112 112" fill="none" xmlns="http://www.w3.org/2000/svg">
<path fill-rule="evenodd" clip-rule="evenodd" d="M58.9442 0.27775C75.8213 0.164731 95.3074 -2.64311 105.888 12.4008C116.496 27.4824 111.052 49.0213 106.293 67.5981C102.001 84.3538 95.1241 100.95 81.3056 108.36C67.6335 115.692 52.3117 110.765 38.4194 103.996C23.3755 96.6669 7.5466 87.769 2.51144 69.9702C-2.97471 50.5773 0.576287 27.9776 12.6841 13.025C24.025 -0.980646 42.2573 0.389495 58.9442 0.27775Z" fill="#F0F3FE"/>
<g clip-path="url(#clip0)">
<path d="M80.5632 75.8492H31.4371C28.8188 75.8492 26.6963 73.7266 26.6963 71.1083V30.2018C26.6963 27.5835 28.8188 25.4609 31.4371 25.4609H80.5632C83.1815 25.4609 85.3041 27.5835 85.3041 30.2018V71.1083C85.3041 73.7266 83.1815 75.8492 80.5632 75.8492Z" fill="#6D83FF"/>
<path d="M79.4675 74.725H32.5324C30.0309 74.725 28.0029 72.697 28.0029 70.1955V31.1135C28.0029 28.612 30.0308 26.584 32.5324 26.584H79.4673C81.9689 26.584 83.9968 28.6118 83.9968 31.1135V70.1956C83.997 72.6971 81.969 74.725 79.4675 74.725Z" fill="#3D48FF"/>
<path d="M82.1274 38.6931L70.3109 18.2265C69.5238 16.8631 67.7804 16.396 66.417 17.1832L29.1609 38.6931H82.1274Z" fill="#E46D48"/>
<path d="M26.6963 55.1642H85.3041V39.6413C85.3041 37.682 83.7158 36.0938 81.7565 36.0938H30.2438C28.2845 36.0938 26.6963 37.682 26.6963 39.6413V55.1642Z" fill="#FEBA7B"/>
<path d="M26.6963 49.3266V71.1082C26.6963 73.7264 28.8188 75.8491 31.4372 75.8491H80.5632C83.1815 75.8491 85.3041 73.7265 85.3041 71.1083V49.3266C85.3041 47.7095 83.9931 46.3984 82.3759 46.3984H29.6245C28.0073 46.3984 26.6963 47.7093 26.6963 49.3266Z" fill="#4A53FF"/>
<path d="M72.4646 81.166L31.3232 76.3879C28.6858 76.0815 26.6963 73.8477 26.6963 71.1926V29.8496C26.6963 30.7381 27.362 31.4855 28.2444 31.588L73.6712 36.864C76.3086 37.1704 78.298 39.4042 78.298 42.0593V75.9709C78.298 79.0985 75.5712 81.527 72.4646 81.166Z" fill="#6D83FF"/>
<path d="M67.2659 23.8521L61.2048 27.1504C60.4152 27.5799 59.427 27.2882 58.9973 26.4987C58.5677 25.7092 58.8594 24.7209 59.649 24.2913L65.7102 20.9931C66.4998 20.5636 67.488 20.8553 67.9177 21.6448C68.3472 22.4342 68.0556 23.4226 67.2659 23.8521Z" fill="white"/>
</g>
<defs>
<clipPath id="clip0">
<rect x="23.8" y="16.8008" width="64.4" height="64.4" fill="white"/>
</clipPath>
</defs>
</svg>
