<svg width="112" height="112" viewBox="0 0 112 112" fill="none" xmlns="http://www.w3.org/2000/svg">
<path fill-rule="evenodd" clip-rule="evenodd" d="M56.2732 0.0197025C75.6124 -0.473096 94.3847 8.31293 105.286 22.5079C115.374 35.6437 112.095 52.2281 108.302 67.7674C104.433 83.6186 100.553 101.504 84.23 108.778C67.7165 116.137 48.3149 109.654 32.1525 101.703C17.3214 94.4081 5.93477 82.8661 1.84551 68.2536C-2.34874 53.266 0.612471 37.5209 10.6645 24.919C21.5177 11.3128 37.5056 0.497934 56.2732 0.0197025Z" fill="#F0F3FE"/>
<g clip-path="url(#clip0)">
<path d="M24.3551 57.4616C25.8831 54.1665 26.8542 50.6176 28.5631 47.404C31.9428 41.0629 38.0834 36.3262 40.4206 29.5254C43.2338 30.6605 44.1763 34.2668 43.8669 37.3033C43.5575 40.3397 42.3865 43.2851 42.5293 46.3312C50.5026 39.7201 60.5757 36.2195 70.9045 36.4699C73.3893 36.5418 76.0788 36.9489 77.8258 38.7113C79.0444 39.9518 79.6061 41.6855 80.1249 43.3474C81.4578 47.5955 82.8049 52.0688 81.929 56.4319C81.6577 57.7825 81.1769 59.1235 81.2959 60.4932C81.4673 62.3658 82.724 64.2864 81.9433 65.9914C81.6482 66.6236 81.096 67.1169 80.8675 67.7778C80.4486 68.9991 81.2674 70.273 81.4387 71.5518C81.791 74.1237 79.5347 76.2837 77.2927 77.5576C70.6285 81.3316 62.7171 82.0356 55.5007 84.5884C32.2712 92.7973 23.465 87.9074 23.1984 87.0692C21.3753 81.4274 17.6243 74.3344 17.2197 68.4387C16.9436 64.4205 22.6367 61.1685 24.3551 57.4616Z" fill="#FEBA7B"/>
<path d="M39.2928 72.2285C38.4969 73.5444 40.3506 75.1053 41.1499 76.4178C41.5511 77.0892 41.9889 77.7606 42.6786 78.1164C43.2888 78.4219 44.0051 78.3984 44.685 78.3715C46.0513 78.3111 47.464 78.2406 48.681 77.6062C50.5613 76.6293 51.5761 74.5414 52.362 72.5541C54.6834 66.6998 56.0895 60.1338 54.186 54.1149C53.6388 52.3828 52.6837 50.6037 51.0123 49.9357C49.3907 49.2912 47.5668 49.8719 45.965 50.5634C45.0365 50.9662 43.2623 51.4462 42.745 52.3862C42.284 53.2187 44.7281 63.2489 39.2928 72.2285Z" fill="url(#paint0_linear)"/>
<path d="M24.5001 97.2994C25.0748 97.0343 24.9579 95.7584 25.2905 95.215C25.5049 94.6484 25.5576 94.0322 25.4424 93.4368C25.224 91.3461 24.9296 89.2507 24.5307 87.1889C23.0676 79.3359 20.325 71.7836 16.4149 64.8408C16.122 64.2032 15.6559 63.6632 15.071 63.2837C14.3112 62.9184 13.3994 63.1491 12.6063 63.399C3.32711 66.1817 10.176 62.4095 1.40015 66.4994C2.80015 70.6994 6.44015 80.0794 9.80015 83.9994C13.1601 87.9194 18.9001 93.7994 24.5001 97.2994Z" fill="#2F44BE"/>
<path d="M73.208 21.1328H46.4396C43.6666 21.1328 41.4187 23.3994 41.4187 26.1954V83.2072C41.4187 86.0032 43.6666 88.2698 46.4396 88.2698H73.208C75.981 88.2698 78.2289 86.0032 78.2289 83.2072V26.1954C78.2289 23.3994 75.981 21.1328 73.208 21.1328Z" fill="#6D83FF"/>
<path d="M76.2389 25.498H43.4082V81.2217H76.2389V25.498Z" fill="white"/>
<path d="M59.1606 51.6808C65.113 51.6808 69.9383 46.7964 69.9383 40.7711C69.9383 34.7458 65.113 29.8613 59.1606 29.8613C53.2082 29.8613 48.3828 34.7458 48.3828 40.7711C48.3828 46.7964 53.2082 51.6808 59.1606 51.6808Z" fill="#E7EAFF"/>
<path d="M68.8697 66.1152H49.1198C48.1633 66.1152 47.3879 66.8887 47.3879 67.8428V71.7727C47.3879 72.7268 48.1633 73.5003 49.1198 73.5003H68.8697C69.8262 73.5003 70.6016 72.7268 70.6016 71.7727V67.8428C70.6016 66.8887 69.8262 66.1152 68.8697 66.1152Z" fill="#68E1FD"/>
<path d="M68.8697 66.1152H49.1198C48.1633 66.1152 47.3879 66.8887 47.3879 67.8428V71.7727C47.3879 72.7268 48.1633 73.5003 49.1198 73.5003H68.8697C69.8262 73.5003 70.6016 72.7268 70.6016 71.7727V67.8428C70.6016 66.8887 69.8262 66.1152 68.8697 66.1152Z" fill="#172CA8"/>
<path d="M50.6424 70.6603C50.6394 70.824 50.6463 70.9878 50.663 71.1503H50.078C50.0948 70.9878 50.1017 70.824 50.0986 70.6603V69.0676H49.7896C49.6207 69.0676 49.5754 69.0676 49.3777 69.0676V68.4648C49.5149 68.4753 49.6525 68.4753 49.7896 68.4648H50.9555C51.0927 68.4743 51.2302 68.4743 51.3674 68.4648V69.0676C51.2302 69.0585 51.0927 69.0585 50.9555 69.0676H50.6548L50.6424 70.6603Z" fill="white"/>
<path d="M53.2723 71.1355C53.2337 70.967 53.182 70.802 53.1179 70.6419C53.0213 70.3605 52.9827 70.2914 52.9055 70.2223C52.873 70.1919 52.835 70.1684 52.7936 70.1531C52.7521 70.1379 52.7082 70.1312 52.6642 70.1334H52.3457V70.6567C52.3414 70.8216 52.3494 70.9866 52.3698 71.1503H51.699C51.7222 70.9869 51.7319 70.8218 51.7279 70.6567V68.9338C51.7293 68.777 51.7196 68.6203 51.699 68.4648H52.1816H52.9924C53.475 68.4648 53.7887 68.7314 53.7887 69.1905C53.7949 69.2859 53.7818 69.3817 53.7503 69.4717C53.7187 69.5617 53.6694 69.6441 53.6053 69.7138C53.5193 69.7873 53.4189 69.8412 53.3109 69.8718C53.4702 69.9211 53.5426 69.9952 53.6391 70.2223C53.6874 70.321 53.7308 70.4296 53.8707 70.7751C53.9045 70.864 53.9431 70.943 54.0203 71.1108L53.2723 71.1355ZM52.8283 69.5904C52.8677 69.594 52.9073 69.5889 52.9446 69.5754C52.9818 69.5619 53.0158 69.5404 53.0442 69.5123C53.0726 69.4842 53.0947 69.4502 53.1091 69.4125C53.1235 69.3749 53.1298 69.3345 53.1275 69.2942C53.1275 69.1165 53.0262 69.0227 52.8331 69.0227H52.3505V69.5904H52.8283Z" fill="white"/>
<path d="M55.9478 71.1503C55.9311 71.0336 55.907 70.9181 55.8757 70.8046L55.7892 70.5291H54.9048L54.8231 70.8046C54.7867 70.9169 54.7609 71.0327 54.7462 71.1503H54.0205C54.08 71.0244 54.1298 70.8937 54.1695 70.7595L54.8376 68.8105C54.8825 68.6992 54.9163 68.5834 54.9385 68.4648H55.7459C55.7746 68.5822 55.8099 68.6976 55.8516 68.8105L56.5245 70.7595C56.5822 70.9299 56.635 71.0601 56.6735 71.1503H55.9478ZM55.3422 69.016L55.0538 69.9829H55.6402L55.3422 69.016Z" fill="white"/>
<path d="M58.4795 69.7682C58.5594 69.89 58.6325 70.0165 58.6983 70.147C58.6983 70.0043 58.6983 69.8568 58.6983 69.6797V68.9567C58.701 68.7922 58.6914 68.6278 58.6698 68.4648H59.3262C59.3067 68.628 59.2987 68.7924 59.3025 68.9567V70.6388C59.301 70.8031 59.3089 70.9673 59.3262 71.1307H58.6508C58.584 70.9908 58.5077 70.856 58.4224 70.7273L57.8564 69.842C57.7742 69.7173 57.6996 69.5876 57.6328 69.4535C57.6513 69.6167 57.6592 69.781 57.6566 69.9453V70.6585C57.645 70.8222 57.645 70.9866 57.6566 71.1503H57.0049C57.0172 70.9866 57.0172 70.8222 57.0049 70.6585V68.9911C57.0164 68.8274 57.0164 68.663 57.0049 68.4993H57.6708C57.7274 68.6385 57.7992 68.7705 57.8849 68.8927L58.4795 69.7682Z" fill="white"/>
<path d="M60.049 70.2543C60.0507 70.3367 60.08 70.4166 60.1328 70.4835C60.1825 70.534 60.2442 70.5735 60.3131 70.5991C60.3821 70.6248 60.4565 70.6358 60.5308 70.6314C60.7875 70.6314 60.9446 70.5264 60.9446 70.3498C60.9464 70.3054 60.934 70.2614 60.9089 70.2232C60.8838 70.1851 60.8471 70.1544 60.8032 70.135C60.6331 70.0791 60.4578 70.0375 60.2794 70.0109C60.0936 69.9844 59.9156 69.9244 59.7557 69.8343C59.6526 69.7673 59.5691 69.6783 59.5125 69.5751C59.4559 69.4719 59.4279 69.3577 59.4309 69.2423C59.4309 68.765 59.8499 68.469 60.5151 68.469C60.6906 68.4544 60.8673 68.4784 61.0305 68.5391C61.1936 68.5997 61.3384 68.6952 61.4526 68.8175C61.5397 68.9279 61.5971 69.0555 61.6202 69.1898L60.9079 69.2614C60.866 69.0609 60.7455 68.975 60.4889 68.975C60.2323 68.975 60.1275 69.08 60.1275 69.2185C60.1287 69.2625 60.145 69.305 60.1741 69.3402C60.2032 69.3753 60.2437 69.4012 60.2899 69.4142C60.44 69.4662 60.5966 69.5015 60.756 69.5192C60.9402 69.5484 61.1174 69.6065 61.2798 69.691C61.3979 69.7559 61.4944 69.8487 61.559 69.9597C61.6236 70.0708 61.6538 70.1957 61.6464 70.3212C61.6503 70.4254 61.6315 70.5292 61.591 70.6267C61.5506 70.7242 61.4893 70.8135 61.4107 70.8892C61.1618 71.0771 60.8426 71.1695 60.5203 71.147C60.2595 71.1542 60.0006 71.1034 59.7661 70.999C59.5959 70.9124 59.4671 70.7712 59.4047 70.6028C59.3641 70.5111 59.3376 70.4147 59.3262 70.3164L60.049 70.2543Z" fill="white"/>
<path d="M62.5418 70.5933C62.5367 70.7794 62.5437 70.9656 62.5628 71.1503H61.9792C62.0018 70.9693 62.0102 70.7862 62.0044 70.6033V68.9323C62.0143 68.7767 62.0143 68.6204 62.0044 68.4648C62.1136 68.4648 62.1933 68.4648 62.399 68.4648H63.184C63.3349 68.4782 63.4865 68.4782 63.6374 68.4648V69.0765C63.4868 69.0576 63.3354 69.0493 63.184 69.0517H62.5628V69.5788H63.0707C63.2104 69.591 63.3507 69.591 63.4905 69.5788V70.1756C63.3511 70.1577 63.2109 70.1494 63.0707 70.1507H62.5628L62.5418 70.5933Z" fill="white"/>
<path d="M65.944 71.1503C65.7702 71.1366 65.5956 71.1366 65.4219 71.1503H64.4369C64.1956 71.1503 64.1069 71.1503 63.969 71.1503C63.9814 70.9962 63.9814 70.8413 63.969 70.6871V68.928C63.98 68.7738 63.98 68.619 63.969 68.4648C64.102 68.4648 64.1906 68.4648 64.4369 68.4648H65.4514C65.6155 68.4747 65.7799 68.4747 65.944 68.4648V69.0611C65.7799 69.0512 65.6155 69.0512 65.4514 69.0611H64.624V69.5292H65.3086C65.5204 69.5292 65.5943 69.5292 65.8011 69.5292V70.1156C65.6376 70.0974 65.4731 70.0891 65.3086 70.0909H64.624V70.628H65.4416C65.6138 70.6382 65.7865 70.6382 65.9587 70.628L65.944 71.1503Z" fill="white"/>
<path d="M67.8669 71.1355C67.8282 70.9676 67.7781 70.8026 67.7169 70.6419C67.6154 70.3605 67.5767 70.2914 67.4993 70.2223C67.4668 70.1919 67.4286 70.1684 67.3871 70.1531C67.3456 70.1379 67.3016 70.1312 67.2575 70.1334H66.9383V70.6567C66.934 70.8216 66.9421 70.9866 66.9625 71.1503H66.2903C66.3136 70.9869 66.3233 70.8218 66.3193 70.6567V68.9338C66.3207 68.777 66.311 68.6203 66.2903 68.4648H66.7739H67.5815C68.0893 68.4648 68.3795 68.7314 68.3795 69.1905C68.3857 69.2859 68.3726 69.3817 68.341 69.4717C68.3094 69.5617 68.2599 69.6441 68.1957 69.7138C68.1101 69.7882 68.0094 69.8422 67.9007 69.8718C68.0603 69.9211 68.1328 69.9952 68.2296 70.2223C68.2779 70.321 68.3215 70.4296 68.4617 70.7751C68.4956 70.864 68.5343 70.943 68.6116 71.1108L67.8669 71.1355ZM67.4268 69.5904C67.466 69.5941 67.5056 69.589 67.5427 69.5755C67.5798 69.562 67.6136 69.5404 67.6416 69.5122C67.6697 69.484 67.6915 69.4499 67.7053 69.4122C67.7191 69.3746 67.7248 69.3343 67.7218 69.2942C67.7218 69.1165 67.6202 69.0227 67.4268 69.0227H66.9432V69.5904H67.4268Z" fill="white"/>
<path d="M62.8782 60.3601C63.1369 60.7663 63.5646 61.065 63.7106 61.5249C63.9725 62.3608 63.18 63.1362 62.981 63.9922C62.6726 65.335 63.8432 66.6005 63.7238 67.9567C63.6376 68.9872 62.8185 69.9406 63.0606 70.9409C62.0657 69.4706 59.562 70.0983 58.6798 71.6458C57.7977 73.1933 58.0498 75.1168 58.3482 76.8758C58.6798 78.7154 59.2734 80.8402 61.0012 81.4881C62.3045 81.9715 63.7338 81.3975 65.0039 80.8335C64.3826 78.5307 63.8167 76.2134 63.306 73.8815C64.8438 73.8605 66.3616 74.2359 67.7166 74.9725C68.2671 73.2235 68.2737 71.3538 68.277 69.5209L68.2936 56.9428V50.4507C68.2936 49.1549 69.0862 49.061 68.1444 48.252C66.924 50.2896 63.1866 49.2154 62.9976 51.6323C62.8682 53.2604 63.9924 54.4521 63.5912 56.154C63.3159 57.4799 62.0093 58.9804 62.8782 60.3601Z" fill="url(#paint1_linear)"/>
<path d="M43.6073 37.9961C44.2407 36.2002 44.1843 34.2163 43.7565 32.3599C43.4746 31.128 43.007 29.8927 42.1183 29.0031C41.9093 28.7514 41.6122 28.5914 41.2892 28.5566C40.6823 28.5566 40.3275 29.228 40.1219 29.8054C39.2597 32.2246 38.477 34.6717 37.774 37.1468C37.3909 38.2871 37.1851 39.4807 37.1638 40.6849C37.2235 42.746 38.3444 44.3473 40.175 42.7225C41.5976 41.4537 42.9573 39.8323 43.6073 37.9961Z" fill="#FEBA7B"/>
<path d="M73.455 39.3553C71.9045 39.9123 70.5659 41.3624 70.6285 43.0094C70.6814 44.3539 71.6493 45.5351 72.8146 46.2121C74.0229 46.8237 75.3247 47.231 76.6668 47.4174C75.5008 47.5971 74.3945 48.0516 73.4398 48.743C72.4851 49.4345 71.7095 50.343 71.1774 51.3932C70.4214 52.9057 70.301 54.9224 71.4808 56.1421C71.9108 56.5608 72.422 56.8876 72.9832 57.1024C73.9423 57.5032 74.9637 57.7356 76.0023 57.7891C73.6765 57.6786 71.3941 59.6041 71.2737 61.9185C71.1533 64.2329 73.4069 66.4273 75.7134 66.1104C73.9606 65.8271 72.1742 67.162 71.736 68.8762C71.557 69.746 71.6268 70.6485 71.9376 71.4805C72.2484 72.3126 72.7876 73.0408 73.4936 73.5819C74.2117 74.1033 75.0278 74.4749 75.8932 74.6746C76.7587 74.8742 77.6556 74.8978 78.5304 74.7439C79.4115 74.6094 80.3409 74.2637 80.8128 73.5194C81.2847 72.7752 81.1691 71.8148 81.068 70.9409C79.9316 61.1599 83.832 51.3692 81.3858 41.7274C81.0632 40.4693 78.8674 39.4705 77.6299 39.1152C76.2437 38.7975 74.7954 38.8807 73.455 39.3553Z" fill="#FEBA7B"/>
<path d="M55.6785 57.8045H61.1119L60.1133 56.3809H61.3509L63.3058 58.7306H55.7957L55.6785 57.8045Z" fill="#5860FF"/>
<path d="M63.3058 60.4607H57.8771L58.8757 62.0878H57.638L55.6785 59.4023H63.1886L63.3058 60.4607Z" fill="#5860FF"/>
<path d="M58.932 47.6153V45.9357C58.0156 45.9349 57.1179 45.6788 56.3418 45.1967L56.7492 44.0786C57.4721 44.5417 58.3134 44.7914 59.1745 44.7984C60.3775 44.7984 61.1924 44.1074 61.1924 43.1572C61.1924 42.207 60.5327 41.6647 59.2521 41.1609C57.5253 40.489 56.4582 39.7212 56.4582 38.2816C56.4582 36.8419 57.4574 35.8342 59.0145 35.5846V33.8906H60.067V35.5174C60.8394 35.5243 61.5974 35.7258 62.2692 36.1029L61.8423 37.2114C61.1992 36.8307 60.4623 36.6331 59.7129 36.6404C58.4081 36.6404 57.9182 37.413 57.9182 38.08C57.9182 38.9534 58.5439 39.3853 60.0137 39.9996C61.7599 40.705 62.6427 41.5736 62.6427 43.066C62.6427 44.3905 61.7114 45.6286 59.9652 45.9117V47.6537L58.932 47.6153Z" fill="#5169F0"/>
</g>
<defs>
<linearGradient id="paint0_linear" x1="3591.58" y1="7062.34" x2="5476.72" y2="6496.22" gradientUnits="userSpaceOnUse">
<stop stop-color="#010101" stop-opacity="0"/>
<stop offset="0.95" stop-color="#010101"/>
</linearGradient>
<linearGradient id="paint1_linear" x1="3016.94" y1="7333.28" x2="4597.36" y2="7442.08" gradientUnits="userSpaceOnUse">
<stop stop-color="#010101" stop-opacity="0"/>
<stop offset="0.95" stop-color="#010101"/>
</linearGradient>
<clipPath id="clip0">
<rect x="1.3999" y="21" width="89.6" height="77" fill="white"/>
</clipPath>
</defs>
</svg>
