<svg width="112" height="112" viewBox="0 0 112 112" fill="none" xmlns="http://www.w3.org/2000/svg">
<path fill-rule="evenodd" clip-rule="evenodd" d="M58.1408 0.38802C74.0411 1.58777 88.59 8.70388 98.6751 21.1622C108.922 33.82 114.023 49.8981 111.254 65.9995C108.287 83.2522 99.4064 99.854 83.8181 107.557C68.1238 115.313 49.6814 112.113 34.1019 104.125C18.9772 96.3713 8.03343 82.8415 3.46153 66.3601C-1.43544 48.7068 -2.44051 28.4757 9.21569 14.4122C20.657 0.607861 40.3533 -0.954119 58.1408 0.38802Z" fill="#F0F3FE"/>
<g clip-path="url(#clip0)">
<path d="M23.5564 73.6824C23.5564 73.6824 15.3379 66.1812 23.4812 57.4482L47.6884 43.7782C49.7917 43.7194 51.8749 44.2052 53.7401 45.1896C56.6291 46.7987 90.8965 73.8862 93.5839 76.6025C96.2712 79.3189 96.7708 84.8611 96.7708 84.8611C96.7708 84.8611 96.9724 86.6862 96.2742 87.4771C95.5761 88.2679 72.368 101.071 71.4712 100.861C70.5744 100.651 67.4868 99.4497 67.4868 99.4497L23.5564 73.6824Z" fill="#5860FF"/>
<path d="M53.6831 25.0794C53.6901 24.851 53.7537 24.6281 53.868 24.431C53.9823 24.2338 54.1437 24.0689 54.3374 23.9511C54.5312 23.8334 54.751 23.7667 54.9769 23.7571C55.2027 23.7475 55.4273 23.7953 55.6302 23.8962L79.8494 35.7745C79.8494 35.7745 81.4564 36.7935 81.4022 38.6612C81.348 40.5288 81.4022 55.4095 81.4022 55.4095C81.4022 55.4095 81.5948 57.0946 78.9526 55.5342C76.3104 53.9737 54.5498 41.1342 54.5498 41.1342C54.5498 41.1342 53.5958 40.7357 53.4544 38.2657C53.3431 36.3524 53.5627 28.7965 53.6831 25.0794Z" fill="#68E1FD"/>
<path d="M53.6831 25.0794C53.6901 24.851 53.7537 24.6281 53.868 24.431C53.9823 24.2338 54.1437 24.0689 54.3374 23.9511C54.5312 23.8334 54.751 23.7667 54.9769 23.7571C55.2027 23.7475 55.4273 23.7953 55.6302 23.8962L79.8494 35.7745C79.8494 35.7745 81.4564 36.7935 81.4022 38.6612C81.348 40.5288 81.4022 55.4095 81.4022 55.4095C81.4022 55.4095 81.5948 57.0946 78.9526 55.5342C76.3104 53.9737 54.5498 41.1342 54.5498 41.1342C54.5498 41.1342 53.5958 40.7357 53.4544 38.2657C53.3431 36.3524 53.5627 28.7965 53.6831 25.0794Z" fill="#172CA8"/>
<path d="M53.3069 25.8218C53.3146 25.5937 53.3787 25.3712 53.4932 25.1746C53.6077 24.9779 53.769 24.8133 53.9625 24.6957C54.156 24.5781 54.3755 24.5113 54.601 24.5013C54.8266 24.4913 55.051 24.5385 55.2539 24.6385L79.4761 36.529C79.4761 36.529 81.0831 37.548 81.026 39.4188C80.9688 41.2895 81.026 56.164 81.026 56.164C81.026 56.164 81.2216 57.8492 78.5794 56.2887C75.9371 54.7283 54.1766 41.8918 54.1766 41.8918C54.1766 41.8918 53.2226 41.4933 53.0782 39.0203C52.9668 37.11 53.1895 29.5541 53.3069 25.8218Z" fill="#5860FF"/>
<path d="M52.991 34.1133L80.7823 49.2159L81.3992 55.4091L53.0782 39.0228L52.991 34.1133Z" fill="url(#paint0_linear)"/>
<path d="M52.991 34.1133L80.7823 49.2159L81.3992 55.4091L53.0782 39.0228L52.991 34.1133Z" fill="url(#paint1_linear)"/>
<path d="M128.237 69.7426C127.102 71.7928 125.688 73.697 124.324 75.6133C121.968 74.8833 119.175 74.4209 117.574 72.5228C105.733 58.4787 99.5876 58.6825 88.9856 54.0498C81.5134 50.7768 72.9639 48.6202 66.4577 43.6529C65.3954 42.8498 64.312 41.5814 64.7905 40.3373C65.269 39.0932 66.8188 38.8894 68.1008 38.9015C71.5831 38.9278 75.0496 39.3772 78.4258 40.2399C78.8238 40.3852 79.2533 40.4188 79.6687 40.3373C80.4 40.1243 80.74 39.2422 80.7099 38.4726C80.5926 36.0665 78.6034 35.0932 76.4306 34.1167C73.2678 32.684 69.777 30.8224 66.6081 29.3958C69.7589 29.5783 72.678 27.8293 75.7866 27.2483C77.0249 27.0442 78.2759 26.9294 79.5303 26.9046C82.6821 26.7869 85.8379 26.6724 88.9977 26.5608C90.06 26.5183 91.1524 26.4757 92.1725 26.7859C93.3763 27.1631 94.3904 27.9783 95.3354 28.824C100.15 33.0825 104.026 38.3084 108.336 43.0932C112.645 47.8779 126.497 54.5304 127.812 55.2057C130.072 60.0361 131.309 64.2095 128.237 69.7426Z" fill="#FEBA7B"/>
<path d="M22.2865 41.809C18.0734 36.1725 10.0024 34.4235 6.16846 28.5223C12.8041 24.6318 20.4057 22.8311 27.8809 21.082C29.9303 23.9474 32.9065 25.949 35.6811 28.1117C38.4557 30.2744 41.1792 32.7718 42.3528 36.1026C43.0811 38.171 43.1563 40.4098 43.2225 42.6029L43.3188 45.8151C43.3721 46.0732 43.3314 46.3421 43.2042 46.5723C43.0771 46.8025 42.872 46.9787 42.6267 47.0683C40.7323 48.233 38.7729 49.2862 36.7585 50.2227C35.6119 50.7307 34.4322 51.1626 33.3037 51.7132C31.3958 52.641 29.6925 53.8972 28.0103 55.19C25.7984 56.8934 26.1054 54.244 25.9038 52.5071C25.4343 48.7444 24.5857 44.8813 22.2865 41.809Z" fill="#CDD5FE"/>
<path d="M23.4812 57.4478C23.4812 57.4478 47.0895 43.9299 47.6884 43.7778C48.2872 43.6257 52.395 44.155 55.308 46.6493C58.2211 49.1436 74.0593 61.752 74.0593 61.752C74.0593 61.752 74.4324 63.1877 73.8306 64.0151C73.2287 64.8425 54.4052 75.644 52.4642 75.1147C50.5232 74.5854 31.775 54.7284 23.4812 57.4478Z" fill="#5770FF"/>
<path d="M23.4812 57.4478C23.4812 57.4478 47.0895 43.9299 47.6884 43.7778C48.2872 43.6257 52.395 44.155 55.308 46.6493C58.2211 49.1436 74.0593 61.752 74.0593 61.752C74.0593 61.752 74.4324 63.1877 73.8306 64.0151C73.2287 64.8425 54.4052 75.644 52.4642 75.1147C50.5232 74.5854 31.775 54.7284 23.4812 57.4478Z" fill="url(#paint2_linear)"/>
<path opacity="0.5" d="M23.406 59.0325C23.406 59.0325 24.1553 56.164 31.9255 62.053C39.6956 67.942 73.6109 95.583 73.6109 95.583L72.7081 100.264C72.7081 100.264 24.2938 76.2492 23.5474 73.6819C22.8011 71.1146 16.9811 65.2317 23.406 59.0325Z" fill="url(#paint3_linear)"/>
<path d="M74.8059 94.9806L95.5764 82.8984L96.2746 87.4794L74.0596 98.9076L74.8059 94.9806Z" fill="url(#paint4_linear)"/>
<path d="M74.8059 94.9806L95.5764 82.8984L96.2746 87.4794L74.0596 98.9076L74.8059 94.9806Z" fill="url(#paint5_linear)"/>
<path d="M66.1779 78.0497L61.8264 80.5927L57.7698 77.3623L62.2717 74.9258L66.1779 78.0497Z" fill="url(#paint6_linear)"/>
<path d="M70.8574 75.3115L66.1779 78.0492L62.2717 74.9252L67.1108 72.3184L70.8574 75.3115Z" fill="url(#paint7_linear)"/>
<path d="M75.0946 72.8346L70.8575 75.3106L67.1108 72.3175L71.4834 69.957H71.4955L75.0946 72.8346Z" fill="url(#paint8_linear)"/>
<path d="M79.4762 70.2724L75.0945 72.8366L71.4954 69.9591L75.9522 67.5469L79.4762 70.2724Z" fill="url(#paint9_linear)"/>
<path d="M83.8697 73.6601L79.3918 76.2791L75.0945 72.8357L79.4761 70.2715L83.8697 73.6601Z" fill="url(#paint10_linear)"/>
<path d="M87.9778 76.848L83.4246 79.5065L79.3921 76.2792L83.87 73.6602L87.9778 76.848Z" fill="url(#paint11_linear)"/>
<path d="M91.8414 79.8286L87.2341 82.5541L83.4243 79.5062L87.9775 76.8477L91.8414 79.8286Z" fill="url(#paint12_linear)"/>
<path d="M87.2342 82.5538L83.0211 85.042L79.1992 81.9849L83.4244 79.5059L87.2342 82.5538Z" fill="url(#paint13_linear)"/>
<path d="M83.0212 85.0414L78.3627 87.8003L74.5198 84.722L79.1993 81.9844L83.0212 85.0414Z" fill="url(#paint14_linear)"/>
<path d="M78.3626 87.801L74.0622 90.3439L70.1892 87.2535L74.5197 84.7227L78.3626 87.801Z" fill="url(#paint15_linear)"/>
<path d="M74.52 84.7226L70.1896 87.2534L66.145 84.0352L70.4875 81.4922L74.52 84.7226Z" fill="url(#paint16_linear)"/>
<path d="M70.4873 81.4922L66.1448 84.0351L61.8264 80.5918L66.1779 78.0488L70.4873 81.4922Z" fill="url(#paint17_linear)"/>
<path d="M79.3919 76.2793L75.1578 78.7584L70.8574 75.312L75.0946 72.8359L79.3919 76.2793Z" fill="url(#paint18_linear)"/>
<path d="M75.1579 78.7589L70.4874 81.4935L66.178 78.0501L70.8575 75.3125L75.1579 78.7589Z" fill="url(#paint19_linear)"/>
<path d="M83.4244 79.5067L79.1993 81.9858L75.1577 78.7584L79.3919 76.2793L83.4244 79.5067Z" fill="url(#paint20_linear)"/>
<path d="M79.1993 81.9852L74.5198 84.7228L70.4873 81.4924L75.1578 78.7578L79.1993 81.9852Z" fill="url(#paint21_linear)"/>
</g>
<defs>
<linearGradient id="paint0_linear" x1="7985.42" y1="3651.63" x2="7541.01" y2="5326.46" gradientUnits="userSpaceOnUse">
<stop stop-color="#010101" stop-opacity="0"/>
<stop offset="0.95" stop-color="#010101"/>
</linearGradient>
<linearGradient id="paint1_linear" x1="131.038" y1="74.5361" x2="40.4999" y2="39.8614" gradientUnits="userSpaceOnUse">
<stop stop-color="#010101"/>
<stop offset="1" stop-color="#010101" stop-opacity="0"/>
</linearGradient>
<linearGradient id="paint2_linear" x1="74.312" y1="62.5216" x2="25.8392" y2="55.373" gradientUnits="userSpaceOnUse">
<stop stop-color="white" stop-opacity="0.46"/>
<stop offset="1" stop-color="white" stop-opacity="0"/>
</linearGradient>
<linearGradient id="paint3_linear" x1="34.8896" y1="102.217" x2="51.7317" y2="67.5294" gradientUnits="userSpaceOnUse">
<stop/>
<stop offset="1" stop-opacity="0"/>
</linearGradient>
<linearGradient id="paint4_linear" x1="7992.37" y1="4723.3" x2="6379.66" y2="9826.42" gradientUnits="userSpaceOnUse">
<stop stop-color="#010101" stop-opacity="0"/>
<stop offset="0.95" stop-color="#010101"/>
</linearGradient>
<linearGradient id="paint5_linear" x1="74.0114" y1="96.2854" x2="96.3756" y2="85.2227" gradientUnits="userSpaceOnUse">
<stop stop-opacity="0.21"/>
<stop offset="1" stop-opacity="0"/>
</linearGradient>
<linearGradient id="paint6_linear" x1="57.7728" y1="77.7608" x2="66.1779" y2="77.7608" gradientUnits="userSpaceOnUse">
<stop stop-color="white" stop-opacity="0"/>
<stop offset="0.66" stop-color="white" stop-opacity="0.54"/>
</linearGradient>
<linearGradient id="paint7_linear" x1="62.2748" y1="75.1853" x2="70.8574" y2="75.1853" gradientUnits="userSpaceOnUse">
<stop stop-color="white" stop-opacity="0"/>
<stop offset="0.66" stop-color="white" stop-opacity="0.54"/>
</linearGradient>
<linearGradient id="paint8_linear" x1="67.1137" y1="72.6353" x2="75.0946" y2="72.6353" gradientUnits="userSpaceOnUse">
<stop stop-color="white" stop-opacity="0"/>
<stop offset="0.66" stop-color="white" stop-opacity="0.54"/>
</linearGradient>
<linearGradient id="paint9_linear" x1="71.4982" y1="70.1932" x2="79.4762" y2="70.1932" gradientUnits="userSpaceOnUse">
<stop stop-color="white" stop-opacity="0"/>
<stop offset="0.66" stop-color="white" stop-opacity="0.54"/>
</linearGradient>
<linearGradient id="paint10_linear" x1="75.0976" y1="73.2769" x2="83.8697" y2="73.2769" gradientUnits="userSpaceOnUse">
<stop stop-color="white" stop-opacity="0"/>
<stop offset="0.66" stop-color="white" stop-opacity="0.54"/>
</linearGradient>
<linearGradient id="paint11_linear" x1="79.3952" y1="76.5849" x2="87.9778" y2="76.5849" gradientUnits="userSpaceOnUse">
<stop stop-color="white" stop-opacity="0"/>
<stop offset="0.66" stop-color="white" stop-opacity="0.54"/>
</linearGradient>
<linearGradient id="paint12_linear" x1="83.4273" y1="79.7024" x2="91.8414" y2="79.7024" gradientUnits="userSpaceOnUse">
<stop stop-color="white" stop-opacity="0"/>
<stop offset="0.66" stop-color="white" stop-opacity="0.54"/>
</linearGradient>
<linearGradient id="paint13_linear" x1="79.2021" y1="82.2754" x2="87.2342" y2="82.2754" gradientUnits="userSpaceOnUse">
<stop stop-color="white" stop-opacity="0"/>
<stop offset="0.66" stop-color="white" stop-opacity="0.54"/>
</linearGradient>
<linearGradient id="paint14_linear" x1="74.5228" y1="84.8939" x2="83.0212" y2="84.8939" gradientUnits="userSpaceOnUse">
<stop stop-color="white" stop-opacity="0"/>
<stop offset="0.66" stop-color="white" stop-opacity="0.54"/>
</linearGradient>
<linearGradient id="paint15_linear" x1="70.1921" y1="87.5348" x2="78.3626" y2="87.5348" gradientUnits="userSpaceOnUse">
<stop stop-color="white" stop-opacity="0"/>
<stop offset="0.66" stop-color="white" stop-opacity="0.54"/>
</linearGradient>
<linearGradient id="paint16_linear" x1="66.148" y1="84.3743" x2="74.52" y2="84.3743" gradientUnits="userSpaceOnUse">
<stop stop-color="white" stop-opacity="0"/>
<stop offset="0.66" stop-color="white" stop-opacity="0.54"/>
</linearGradient>
<linearGradient id="paint17_linear" x1="61.8295" y1="81.0436" x2="70.4873" y2="81.0436" gradientUnits="userSpaceOnUse">
<stop stop-color="white" stop-opacity="0"/>
<stop offset="0.66" stop-color="white" stop-opacity="0.54"/>
</linearGradient>
<linearGradient id="paint18_linear" x1="70.8605" y1="75.7987" x2="79.3919" y2="75.7987" gradientUnits="userSpaceOnUse">
<stop stop-color="white" stop-opacity="0"/>
<stop offset="0.66" stop-color="white" stop-opacity="0.54"/>
</linearGradient>
<linearGradient id="paint19_linear" x1="66.1812" y1="78.4047" x2="75.1579" y2="78.4047" gradientUnits="userSpaceOnUse">
<stop stop-color="white" stop-opacity="0"/>
<stop offset="0.66" stop-color="white" stop-opacity="0.54"/>
</linearGradient>
<linearGradient id="paint20_linear" x1="75.1607" y1="79.1341" x2="83.4244" y2="79.1341" gradientUnits="userSpaceOnUse">
<stop stop-color="white" stop-opacity="0"/>
<stop offset="0.66" stop-color="white" stop-opacity="0.54"/>
</linearGradient>
<linearGradient id="paint21_linear" x1="70.4904" y1="81.7419" x2="79.1993" y2="81.7419" gradientUnits="userSpaceOnUse">
<stop stop-color="white" stop-opacity="0"/>
<stop offset="0.66" stop-color="white" stop-opacity="0.54"/>
</linearGradient>
<clipPath id="clip0">
<rect x="6" y="21" width="105" height="80" fill="white"/>
</clipPath>
</defs>
</svg>
