<svg width="340" height="260" viewBox="0 0 340 260" fill="none" xmlns="http://www.w3.org/2000/svg">
<g clip-path="url(#clip0)">
<path d="M219.755 116.586C219.755 116.586 236.371 143.133 252.251 157.759C268.131 172.385 286.615 187.368 275.421 214.883C264.226 242.397 231.233 253.665 172.232 252.227C113.23 250.789 92.3981 250.476 79.4584 221.297C66.5187 192.117 109.584 185.573 139.001 176.702C168.419 167.83 219.755 116.586 219.755 116.586Z" fill="#E3E5FC"/>
<path opacity="0.49" d="M222.592 174.541C222.592 174.541 230.685 205.682 201.832 213.074C172.979 220.469 119.141 219.38 98.8732 204.992C78.605 190.605 222.592 174.541 222.592 174.541Z" fill="url(#paint0_linear)"/>
<path d="M297.704 228.449C300.561 226.695 301.923 222.853 300.805 219.7C298.977 214.547 294.249 216.284 290.89 213.577C286.932 210.391 291.718 205.379 291.454 201.616C291.165 197.477 287.427 193.479 286.301 189.478C283.719 180.283 294.205 187.146 297.195 186.073C298.446 185.625 299.266 184.372 299.555 183.076C300.289 179.77 298.893 177.1 300.708 173.972C302.462 170.952 305.052 169.589 304.304 165.488C303.882 163.166 302.445 161.039 302.481 158.678C302.492 158.002 302.684 157.243 303.276 156.913C303.726 156.661 304.288 156.73 304.774 156.899C306.389 157.465 307.45 158.966 308.751 160.077C310.052 161.188 312.142 161.875 313.389 160.706C314.22 159.928 314.301 158.67 314.47 157.545C314.773 155.517 316.202 154.109 317.975 155.281C319.906 156.559 319.167 161.587 318.875 163.391C318.414 166.25 317.714 169.22 318.567 171.991C319.976 176.573 323.828 171.439 325.506 169.921C326.882 168.677 329.18 167.932 330.501 169.231C333.13 171.816 328.903 175.271 328.347 177.72C328.08 178.887 328.424 180.283 329.464 180.881C332.507 182.638 335.078 179.507 335.539 184.181C335.856 187.384 332.949 190.437 334.753 193.64C336.328 196.438 341.573 197.627 339.499 201.553C338.227 203.963 332.746 203.855 333.035 207.285C333.224 209.521 336.595 210.535 336.598 212.779C336.601 214.469 334.628 215.466 332.935 215.552C331.243 215.638 329.458 215.245 327.899 215.904C326.129 216.652 325.103 218.821 325.651 220.661C326.129 222.26 327.621 223.714 327.152 225.316C326.587 227.241 323.911 227.311 321.924 227.003C313.803 225.737 305.108 224.892 297.704 228.449Z" fill="#FAE026"/>
<path d="M313.039 227.652C312.75 227.652 312.52 227.419 312.52 227.134V191.014C312.52 190.729 312.753 190.496 313.039 190.496C313.328 190.496 313.559 190.729 313.559 191.014V227.131C313.559 227.419 313.328 227.652 313.039 227.652Z" fill="white"/>
<path d="M313.039 213.594C312.922 213.594 312.808 213.556 312.711 213.478C312.489 213.298 312.453 212.971 312.636 212.747L322.138 201.069C322.321 200.844 322.649 200.814 322.872 200.994C323.094 201.174 323.13 201.501 322.947 201.725L313.445 213.403C313.339 213.528 313.192 213.594 313.039 213.594Z" fill="white"/>
<path d="M313.039 203.729C312.92 203.729 312.8 203.691 312.703 203.608L301.378 194.107C301.158 193.922 301.131 193.595 301.314 193.376C301.5 193.157 301.828 193.129 302.048 193.312L313.373 202.812C313.592 202.998 313.62 203.325 313.437 203.544C313.334 203.669 313.186 203.729 313.039 203.729Z" fill="white"/>
<path d="M296.12 223.386C297.61 233.257 298.952 243.583 301.459 253.108C301.667 253.901 301.912 254.732 302.418 255.241C303.015 255.843 303.827 255.854 304.574 255.837C308.899 255.737 313.231 256.014 317.556 255.99C321.644 255.967 325.02 256.297 325.448 249.529C325.596 247.182 325.968 223.383 328.139 223.383C328.13 223.386 296.12 223.386 296.12 223.386Z" fill="#978CFF"/>
<path d="M325.215 229.285H299.044C295.789 229.285 293.124 226.631 293.124 223.384C293.124 220.139 295.786 217.482 299.044 217.482H325.215C328.469 217.482 331.134 220.137 331.134 223.384C331.134 226.631 328.469 229.285 325.215 229.285Z" fill="#A7ADFF"/>
<path d="M199.059 12.574C199.059 12.574 202.488 20.1709 197.13 24.8476C191.772 29.5243 184.488 25.8229 177.417 30.1062C170.347 34.3895 171.109 39.4651 174.352 50.7662C178.21 64.209 182.423 63.8073 186.211 64.7798C189.999 65.755 191.13 76.2748 191.558 81.1455C191.986 86.0161 192.628 89.3269 179.129 95.9514C165.631 102.576 172.996 112.708 174.349 125.84C175.847 140.366 158.558 148.744 155.56 152.252C152.561 155.759 145.488 156.344 141.631 148.941C137.773 141.538 157.374 136.089 155.662 124.206C153.948 112.323 143.481 104.327 158.266 92.6378C173.051 80.9488 170.131 71.6009 165.203 62.0563C160.276 52.5117 157.919 48.8102 161.988 36.5366C166.056 24.263 161.774 27.9645 167.129 18.2232C172.49 8.48469 191.989 -2.23185 199.059 12.574Z" fill="#7179FF"/>
<path d="M189.734 70.2314L190.81 90.2321L206.515 96.2691C206.515 96.2691 197.071 82.4939 198.672 70.2286C200.273 57.9661 189.734 70.2314 189.734 70.2314Z" fill="#D4A79A"/>
<path d="M226.13 135.117C226.13 135.117 225.088 133.214 221.964 123.439C218.84 113.664 217.712 110.029 213.374 100.571C209.036 91.1121 200.009 85.2025 200.009 85.2025L188.728 84.5957C188.728 84.5957 187.339 84.6816 180.833 90.0454C174.324 95.4092 168.077 110.722 168.077 110.722L165.3 141.173L184.827 155.533L198.628 160.492C197.963 159.609 197.427 158.672 197.094 157.68C194.781 150.829 202.53 112.883 202.791 109.509C203.052 106.134 209.608 138.317 209.608 138.317L215.286 136.674L219.182 149.05L221.619 136.414L226.13 135.117Z" fill="#4A53FF"/>
<path d="M219.969 151.555L219.179 149.051L217.92 155.578L219.969 151.555Z" fill="url(#paint1_linear)"/>
<path d="M209.602 138.316C209.602 138.316 203.046 106.133 202.785 109.508C202.524 112.882 194.776 150.828 197.088 157.679C197.421 158.671 197.958 159.608 198.622 160.492L212.821 165.592L217.92 155.574L219.179 149.046L215.283 136.67L209.602 138.316Z" fill="#FDC510"/>
<path d="M209.602 138.316C209.602 138.316 203.046 106.133 202.785 109.508C202.524 112.882 194.776 150.828 197.088 157.679C197.421 158.671 197.958 159.608 198.622 160.492L212.821 165.592L217.92 155.574L219.179 149.046L215.283 136.67L209.602 138.316Z" fill="#4441E9"/>
<path d="M94.541 126.213L174.263 130.047L189.735 144.986L115.271 143.116L94.541 126.213Z" fill="#CED0F0"/>
<path d="M169.717 132.458L97.7425 127.612C95.7971 127.762 94.1102 126.457 93.974 124.692L79.4697 85.8988C79.3335 84.1367 80.7981 82.5852 82.7408 82.4355L154.715 87.284C156.66 87.1344 158.347 88.4394 158.483 90.2042L172.988 128.998C173.127 130.757 171.659 132.308 169.717 132.458Z" fill="#5C93FF"/>
<path d="M133.609 110.701C134.464 106.779 131.436 102.793 126.847 101.799C122.257 100.804 117.843 103.178 116.988 107.1C116.133 111.022 119.161 115.007 123.75 116.002C128.34 116.996 132.754 114.623 133.609 110.701Z" fill="#4A53FF"/>
<path d="M61.7442 195.1L41.3926 224.814L50.6582 232.619L70.0455 200.358C70.0455 200.355 65.6016 195.371 61.7442 195.1Z" fill="#D4A79A"/>
<path d="M0.175365 241.388C0.175365 241.388 8.00419 244.053 23.006 245.162C38.0077 246.273 54.752 246.827 57.7952 244.607C60.8383 242.388 62.7949 223.518 57.7952 223.518C52.7955 223.518 50.8501 230.732 42.0319 224.294C34.4782 218.777 28.442 229.178 15.2883 231.951C2.13466 234.725 -3.19295 235.839 0.175365 241.388Z" fill="#FAE026"/>
<path d="M188.426 162.969C186.628 159.598 176.895 161.498 165.231 157.173C153.564 152.849 146.03 143.764 132.776 133.297C119.523 122.83 120.429 124.644 114.709 124.212C108.99 123.78 101.908 139.179 97.912 147.313C89.4995 164.441 78.8526 179.745 62.9477 189.703C58.1147 192.728 36.821 204.237 33.2637 209.058C25.7712 219.204 62.6086 219.289 72.2411 220.461C81.7763 221.619 87.1234 216.22 90.9808 207.686C95.3829 197.953 100.199 188.428 105.01 178.903C107.417 174.138 109.834 169.375 112.194 164.585C113.211 162.521 115.412 155.029 117.866 154.095C125.414 151.231 135.377 174.168 137.495 179.321C141.761 189.703 157.377 201.815 168.724 203.026C180.072 204.237 188.606 196.712 192.328 185.724C196.052 174.736 188.426 162.969 188.426 162.969Z" fill="#71A1FF"/>
<path d="M100.566 197.352L80.2148 227.066L89.4805 234.871L108.868 202.61C108.865 202.607 104.424 197.623 100.566 197.352Z" fill="#EAC2AB"/>
<path d="M38.9972 243.64C38.9972 243.64 46.826 246.305 61.8278 247.414C76.8296 248.525 93.5739 249.079 96.617 246.859C99.6602 244.64 101.617 225.77 96.617 225.77C91.6174 225.77 89.672 232.984 80.8538 226.546C73.3001 221.029 67.2638 231.43 54.1102 234.203C40.9565 236.977 35.6261 238.091 38.9972 243.64Z" fill="#FDC510"/>
<path d="M217.885 162.969C216.167 159.598 206.863 161.498 195.713 157.173C184.563 152.849 177.359 143.764 164.689 133.297C152.019 122.83 152.886 124.644 147.42 124.212C141.953 123.78 135.183 139.179 131.365 147.313C119.617 172.334 95.4416 189.126 73.4392 204.575C72.0719 205.534 70.5378 206.866 70.8213 208.509C70.9658 209.346 71.5661 210.022 72.1803 210.612C80.3426 218.467 95.6334 221.999 106.622 221.487C117.686 220.971 123.692 211.767 127.871 202.666C135.347 186.383 142.651 169.605 151.733 154.151C155.146 148.349 166.023 171.772 166.968 173.952C172.602 186.974 183.785 201.322 199.056 203.026C209.903 204.237 218.06 196.712 221.62 185.724C225.174 174.736 217.885 162.969 217.885 162.969Z" fill="#5C93FF"/>
<path d="M175.703 27.6551C175.703 27.6551 167.315 33.8224 170.653 47.6752C173.991 61.528 184.371 73.3583 188.559 72.5244C200.14 70.2193 204.2 62.06 208.216 55.0588C213.141 46.4728 203.364 25.5273 203.364 25.5273L194.128 20.5625L175.703 27.6551Z" fill="#EAC2AB"/>
<path d="M192.416 21.535C192.416 21.535 198.244 23.4827 203.366 31.6642C208.488 39.8457 205.128 41.1811 205.128 52.1497C205.128 55.3553 204.525 58.5137 202.783 61.2455C201.518 63.2292 199.714 64.7918 198.406 66.7367C196.752 69.1915 196.224 71.962 196.357 74.8905C196.638 81.0827 197.63 86.2249 203.147 89.7213C209.111 93.5004 211.893 98.5483 213.46 105.369C215.336 113.537 228.843 118.158 233.556 115.041C238.269 111.925 224.21 114.005 226.997 100.565C229.782 87.1225 230.738 81.4179 222.595 77.6832C214.452 73.9485 218.343 72.9622 222.628 64.7807C226.914 56.5993 215.867 56.699 220.227 42.4583C225.26 26.0206 220.7 7.7016 196.057 12.7662C171.415 17.8308 192.416 21.535 192.416 21.535Z" fill="#5C93FF"/>
<path d="M186.416 37.1781C193.487 32.8921 191.775 29.5203 197.133 24.8464C202.488 20.1696 199.062 12.5728 199.062 12.5728C191.991 -2.23312 172.493 8.48064 167.135 18.2219C161.777 27.9632 166.065 24.2618 161.993 36.5354C159.186 44.9939 159.437 49.3825 161.476 54.4193L173.002 59.0711C168.335 41.4226 181.097 40.4003 186.416 37.1781Z" fill="#5E67FF"/>
<path d="M215.108 151.033C215.108 151.033 215.108 155.79 213.285 154.925C211.462 154.061 194.368 143.419 192.111 140.912C189.854 138.402 184.56 129.32 184.302 127.502C184.04 125.685 184.91 125.599 181.35 126.117C177.793 126.635 171.37 128.627 172.326 129.749C173.28 130.874 175.97 130.095 175.97 130.095C175.97 130.095 172.818 132.085 174.35 132.345C175.881 132.606 180.394 131.738 180.394 133.124C180.394 134.509 180.133 139.18 181.175 141.516C182.217 143.851 183.518 144.63 186.903 145.408C190.288 146.187 190.885 145.926 193.667 148.783C196.449 151.639 211.982 165.392 213.977 166.085C215.973 166.778 216.84 167.988 219.272 163.575C221.703 159.161 223.437 155.79 223.61 148.869C223.782 141.948 223.001 135.287 223.001 135.287L215.278 136.673C215.283 136.673 215.975 144.458 215.108 151.033Z" fill="#EAC2AB"/>
<path d="M240.093 63.1526C241.477 56.8302 244.567 50.5272 246.835 44.4569C248.041 41.232 250.689 36.8822 250.959 33.4273C251.048 32.2941 252.132 31.4546 253.38 31.5516L299.608 28.4375C300.856 28.5345 301.798 29.5291 301.709 30.6623L292.393 55.5779C292.304 56.7111 291.22 57.5506 289.973 57.4536L252.69 59.828C250.406 61.2105 246.782 62.593 244.495 63.97C241.957 65.4965 238.823 68.9542 240.093 63.1526Z" fill="#E3E5FC"/>
<path d="M273.547 47.2882L288.569 46.6371C289.58 46.5928 290.369 45.7339 290.325 44.7254C290.281 43.717 289.419 42.9301 288.407 42.9744L273.386 43.6255C272.375 43.6699 271.585 44.5287 271.63 45.5372C271.674 46.5429 272.536 47.3298 273.547 47.2882Z" fill="white"/>
<path d="M262.745 41.0841L289.958 39.9067C290.97 39.8623 291.759 39.0035 291.715 37.995C291.67 36.9865 290.809 36.1996 289.797 36.244L262.584 37.4215C261.572 37.4658 260.783 38.3247 260.827 39.3331C260.872 40.3389 261.733 41.1285 262.745 41.0841Z" fill="white"/>
<path d="M104.76 68.8162C103.159 61.4964 99.5821 54.2015 96.9531 47.1754C95.5579 43.4434 92.4898 38.4093 92.1785 34.4086C92.0757 33.0981 90.8223 32.1257 89.3771 32.2393L35.8677 28.6348C34.4225 28.7456 33.3331 29.8981 33.4359 31.2086L44.219 60.0502C44.3218 61.3607 45.5752 62.3331 47.0203 62.2195L90.1747 64.9707C92.8205 66.5693 97.0114 68.1735 99.6627 69.7665C102.6 71.5314 106.23 75.5349 104.76 68.8162Z" fill="#E3E5FC"/>
<path d="M66.0354 50.4524L48.6491 49.6988C47.4791 49.6489 46.5647 48.6515 46.6148 47.4851C46.6648 46.3187 47.6653 45.4072 48.8353 45.457L66.2216 46.2106C67.3916 46.2605 68.3059 47.2579 68.2559 48.4243C68.2031 49.5907 67.2054 50.5022 66.0354 50.4524Z" fill="white"/>
<path d="M78.5388 43.2748L47.0373 41.9116C45.8672 41.8618 44.9529 40.8644 45.0029 39.698C45.053 38.5316 46.0534 37.6201 47.2235 37.6699L78.725 39.033C79.895 39.0829 80.8093 40.0803 80.7593 41.2467C80.7065 42.4131 79.7088 43.3246 78.5388 43.2748Z" fill="white"/>
<g opacity="0.72">
<path d="M134.138 26.1188C133.107 21.406 130.803 16.7099 129.113 12.1856C128.216 9.78351 126.24 6.54195 126.04 3.96533C125.973 3.1203 125.167 2.49693 124.236 2.56896L89.7829 0.25C88.8519 0.322035 88.1516 1.06455 88.2155 1.9068L95.1578 20.4751C95.2245 21.3201 96.0304 21.9435 96.9614 21.8715L124.747 23.6419C126.451 24.6725 129.149 25.7032 130.856 26.7283C132.748 27.867 135.083 30.4436 134.138 26.1188Z" fill="#E3E5FC"/>
<path d="M109.203 14.2953L98.0091 13.8104C97.2559 13.7772 96.6667 13.1372 96.7001 12.3864C96.7334 11.6355 97.3754 11.0482 98.1286 11.0814L109.323 11.5663C110.076 11.5995 110.665 12.2395 110.632 12.9903C110.599 13.7412 109.957 14.3285 109.203 14.2953Z" fill="white"/>
<path d="M117.255 9.67307L96.9724 8.7948C96.2193 8.76156 95.6301 8.12156 95.6635 7.37073C95.6968 6.61991 96.3388 6.03255 97.0919 6.0658L117.374 6.94407C118.127 6.97731 118.716 7.61731 118.683 8.36814C118.65 9.11896 118.008 9.70632 117.255 9.67307Z" fill="white"/>
</g>
<path d="M136.236 52.9856L118.85 52.232C117.68 52.1821 116.765 51.1847 116.815 50.0183C116.865 48.8519 117.866 47.9404 119.036 47.9902L136.422 48.7438C137.592 48.7937 138.507 49.7911 138.457 50.9575C138.404 52.1239 137.403 53.0354 136.236 52.9856Z" fill="#E3E5FC"/>
<path d="M137.97 61.4543L120.584 60.7007C119.414 60.6508 118.5 59.6534 118.55 58.487C118.6 57.3206 119.6 56.4091 120.77 56.459L138.157 57.2126C139.327 57.2624 140.241 58.2599 140.191 59.4263C140.138 60.5927 139.14 61.507 137.97 61.4543Z" fill="#E3E5FC"/>
<path d="M141.052 70.1516L123.666 69.398C122.496 69.3481 121.582 68.3507 121.632 67.1843C121.682 66.0179 122.682 65.1064 123.852 65.1562L141.239 65.9098C142.409 65.9597 143.323 66.9571 143.273 68.1235C143.223 69.2899 142.222 70.2015 141.052 70.1516Z" fill="#E3E5FC"/>
</g>
<defs>
<linearGradient id="paint0_linear" x1="232.689" y1="210.331" x2="231.237" y2="164.963" gradientUnits="userSpaceOnUse">
<stop stop-color="#A7ADFF"/>
<stop offset="1" stop-color="#E3E5FC"/>
</linearGradient>
<linearGradient id="paint1_linear" x1="228.449" y1="124.675" x2="193.257" y2="112.192" gradientUnits="userSpaceOnUse">
<stop stop-color="#A7ADFF"/>
<stop offset="1" stop-color="#E3E5FC"/>
</linearGradient>
<clipPath id="clip0">
<rect width="340" height="260" fill="white"/>
</clipPath>
</defs>
</svg>
