<svg width="260" height="260" viewBox="0 0 260 260" fill="none" xmlns="http://www.w3.org/2000/svg">
<path fill-rule="evenodd" clip-rule="evenodd" d="M139.634 44.6938C160.946 47.8531 184.346 36.6914 202.596 48.1129C221.191 59.7506 225.722 83.7017 234.22 103.889C243.625 126.234 257.313 147.726 254.666 171.815C251.683 198.964 241.2 227.494 218.897 243.342C196.656 259.145 166.942 253.377 139.634 253.549C112.121 253.721 82.1037 260.191 59.6433 244.342C37.1045 228.438 32.9125 198.073 24.0577 171.992C15.0739 145.53 0.886576 118.897 7.86853 91.8411C15.0303 64.0889 34.3808 36.8621 61.4267 27.1848C87.206 17.9606 112.544 40.6776 139.634 44.6938Z" fill="url(#paint0_linear)"/>
<path d="M79.9277 182.248C79.9277 182.248 68.5048 208.545 128.546 215.561V242.153H197.958V171.731L79.0361 168.514L79.9277 182.248Z" fill="#EAC2AB"/>
<path d="M112.554 71.1686C110.871 73.8172 108.207 75.6939 105.142 76.3887C102.077 77.0836 98.8614 76.5402 96.197 74.8771L61.5427 52.0842C58.888 50.4057 57.0069 47.7473 56.3105 44.6896C55.614 41.6319 56.1587 38.4235 57.8256 35.7653C59.5079 33.1167 62.1725 31.24 65.2373 30.5451C68.302 29.8503 71.5179 30.3937 74.1823 32.0567L108.83 54.8363C111.489 56.5138 113.375 59.1742 114.072 62.2352C114.77 65.2962 114.224 68.5084 112.554 71.1686Z" fill="#EAC2AB"/>
<path d="M184.782 201.537C199.178 201.537 210.849 189.893 210.849 175.53C210.849 161.167 199.178 149.523 184.782 149.523C170.385 149.523 158.715 161.167 158.715 175.53C158.715 189.893 170.385 201.537 184.782 201.537Z" fill="#EAC2AB"/>
<path d="M180.09 4H80.2329C77.9653 4 76.127 5.83404 76.127 8.09645V194.513C76.127 196.776 77.9653 198.61 80.2329 198.61H180.09C182.357 198.61 184.196 196.776 184.196 194.513V8.09645C184.196 5.83404 182.357 4 180.09 4Z" fill="url(#paint1_linear)"/>
<path d="M178.159 6.63086H82.1568C79.6319 6.63086 77.585 8.67301 77.585 11.1921V191.422C77.585 193.942 79.6319 195.984 82.1568 195.984H178.159C180.684 195.984 182.731 193.942 182.731 191.422V11.1921C182.731 8.67301 180.684 6.63086 178.159 6.63086Z" fill="white"/>
<path d="M156.573 11.3809C156.269 13.389 155.255 15.2221 153.713 16.5488C152.172 17.8755 150.206 18.6081 148.17 18.614H111.857C109.822 18.6073 107.856 17.8743 106.316 16.5477C104.775 15.2211 103.761 13.3884 103.457 11.3809H84.218C83.6935 11.3804 83.174 11.4831 82.6893 11.6831C82.2046 11.883 81.7641 12.1763 81.3931 12.5462C81.022 12.9161 80.7277 13.3553 80.5268 13.8387C80.326 14.3221 80.2227 14.8403 80.2227 15.3636V187.247C80.2222 187.771 80.3251 188.289 80.5256 188.772C80.726 189.256 81.02 189.695 81.3907 190.066C81.7614 190.436 82.2017 190.729 82.6862 190.93C83.1708 191.13 83.6901 191.233 84.2147 191.233H176.101C176.625 191.234 177.145 191.131 177.63 190.931C178.114 190.731 178.555 190.438 178.926 190.068C179.297 189.698 179.591 189.259 179.792 188.775C179.993 188.292 180.096 187.774 180.096 187.251V15.367C180.097 14.8437 179.994 14.3254 179.793 13.8418C179.593 13.3582 179.299 12.9188 178.928 12.5486C178.557 12.1784 178.117 11.8847 177.633 11.6844C177.148 11.484 176.629 11.3809 176.104 11.3809H156.573Z" fill="#6C63FF"/>
<path d="M141.353 13.6445H119.261C118.891 13.6445 118.591 13.944 118.591 14.3133V14.4371C118.591 14.8064 118.891 15.1059 119.261 15.1059H141.353C141.723 15.1059 142.023 14.8064 142.023 14.4371V14.3133C142.023 13.944 141.723 13.6445 141.353 13.6445Z" fill="#DBDBDB"/>
<path d="M147 15.1058C147.485 15.1058 147.878 14.7135 147.878 14.2297C147.878 13.7458 147.485 13.3535 147 13.3535C146.515 13.3535 146.122 13.7458 146.122 14.2297C146.122 14.7135 146.515 15.1058 147 15.1058Z" fill="#DBDBDB"/>
<path d="M195.297 100.236C193.822 93.8673 187.452 89.8976 181.069 91.369C174.686 92.8404 170.707 99.1957 172.182 105.564L188.166 174.582C189.641 180.951 196.011 184.92 202.394 183.449C208.777 181.978 212.756 175.622 211.281 169.254L195.297 100.236Z" fill="#EAC2AB"/>
<path d="M208.057 236.127H114.207V254.185H208.057V236.127Z" fill="#4D8AF0"/>
<g opacity="0.5">
<path opacity="0.5" d="M130.158 131.385C146.807 131.385 160.304 117.919 160.304 101.309C160.304 84.698 146.807 71.2324 130.158 71.2324C113.509 71.2324 100.012 84.698 100.012 101.309C100.012 117.919 113.509 131.385 130.158 131.385Z" fill="url(#paint2_linear)"/>
</g>
<path d="M130.158 129.615C145.828 129.615 158.531 116.941 158.531 101.307C158.531 85.6736 145.828 73 130.158 73C114.488 73 101.785 85.6736 101.785 101.307C101.785 116.941 114.488 129.615 130.158 129.615Z" fill="#69F0AE"/>
<path d="M117.843 97.5295L128.482 107.261L143.555 85.1465L148.877 89.5706L128.482 116.109L113.409 99.3018L117.843 97.5295Z" fill="white"/>
<path d="M92.6276 174.9C90.9453 177.548 88.2807 179.425 85.2159 180.12C82.1511 180.815 78.9353 180.271 76.2708 178.608L61.8313 168.121C59.1766 166.443 57.2955 163.784 56.599 160.727C55.9025 157.669 56.4472 154.461 58.1141 151.802C59.7965 149.154 62.4611 147.277 65.5258 146.582C68.5906 145.887 71.8065 146.431 74.4709 148.094L88.9071 158.601C91.5568 160.279 93.4347 162.933 94.1315 165.986C94.8284 169.039 94.2879 172.243 92.6276 174.9Z" fill="#EAC2AB"/>
<path d="M98.778 140.7C97.0957 143.349 94.4311 145.225 91.3663 145.92C88.3016 146.615 85.0857 146.072 82.4212 144.409L58.905 129.227C56.2503 127.548 54.3692 124.89 53.6728 121.832C52.9763 118.775 53.521 115.566 55.1879 112.908C56.8702 110.259 59.5348 108.383 62.5996 107.688C65.6643 106.993 68.8802 107.536 71.5446 109.199L95.0609 124.381C97.7156 126.06 99.5966 128.718 100.293 131.776C100.99 134.833 100.445 138.042 98.778 140.7Z" fill="#EAC2AB"/>
<path d="M104.932 106.524C103.25 109.173 100.585 111.05 97.5203 111.744C94.4555 112.439 91.2397 111.896 88.5752 110.233L58.9084 90.9611C56.2537 89.2827 54.3727 86.6242 53.6762 83.5666C52.9797 80.5089 53.5244 77.3005 55.1913 74.6422C56.8736 71.9936 59.5382 70.1169 62.603 69.4221C65.6678 68.7272 68.8836 69.2706 71.5481 70.9337L101.212 90.2054C103.867 91.8833 105.749 94.5415 106.446 97.5992C107.143 100.657 106.599 103.866 104.932 106.524Z" fill="#EAC2AB"/>
<defs>
<linearGradient id="paint0_linear" x1="205.074" y1="42.2646" x2="48.8551" y2="231.523" gradientUnits="userSpaceOnUse">
<stop stop-color="#ECEFFF"/>
<stop offset="1" stop-color="#FAFBFF"/>
</linearGradient>
<linearGradient id="paint1_linear" x1="63920.8" y1="127290" x2="63920.8" y2="14034.6" gradientUnits="userSpaceOnUse">
<stop stop-color="#808080" stop-opacity="0.25"/>
<stop offset="0.54" stop-color="#808080" stop-opacity="0.12"/>
<stop offset="1" stop-color="#808080" stop-opacity="0.1"/>
</linearGradient>
<linearGradient id="paint2_linear" x1="21354.2" y1="22985.2" x2="21354.2" y2="12164.3" gradientUnits="userSpaceOnUse">
<stop stop-color="#808080" stop-opacity="0.25"/>
<stop offset="0.54" stop-color="#808080" stop-opacity="0.12"/>
<stop offset="1" stop-color="#808080" stop-opacity="0.1"/>
</linearGradient>
</defs>
</svg>
