<svg width="52" height="52" viewBox="0 0 52 52" fill="none" xmlns="http://www.w3.org/2000/svg">
<path fill-rule="evenodd" clip-rule="evenodd" d="M9.38335 47.7074V22.2852H7.42847V49.5232H44.5713V22.2852H42.6164V47.7074H9.38335Z" fill="#5B63FF"/>
<path fill-rule="evenodd" clip-rule="evenodd" d="M48.2858 17.698L41.6001 3.71484H10.4001L3.71436 17.698C3.71436 18.0971 3.75272 18.4868 3.8258 18.8633C4.34202 21.5227 6.59037 23.5244 9.28578 23.5244C10.9798 23.5244 12.4972 22.7338 13.519 21.4862C14.1231 20.7486 14.554 19.8514 14.7458 18.8633C14.8188 18.4868 14.8572 18.0971 14.8572 17.698C14.8572 18.0971 14.8956 18.4868 14.9687 18.8633C15.1605 19.8514 15.5913 20.7486 16.1954 21.4862C17.2173 22.7338 18.7347 23.5244 20.4286 23.5244C22.1226 23.5244 23.64 22.7338 24.6619 21.4862C25.2659 20.7486 25.6968 19.8514 25.8886 18.8633C25.9617 18.4868 26.0001 18.0971 26.0001 17.698C26.0001 18.0971 26.0384 18.4868 26.1115 18.8633C26.3033 19.8514 26.7342 20.7486 27.3383 21.4862C28.3601 22.7338 29.8775 23.5244 31.5715 23.5244C33.2655 23.5244 34.7829 22.7338 35.8047 21.4862C36.4088 20.7486 36.8397 19.8514 37.0315 18.8633C37.1046 18.4868 37.1429 18.0971 37.1429 17.698C37.1429 18.0971 37.1813 18.4868 37.2544 18.8633C37.4462 19.8514 37.8771 20.7486 38.4811 21.4862C39.503 22.7338 41.0204 23.5244 42.7144 23.5244C45.4098 23.5244 47.6581 21.5227 48.1743 18.8633C48.2474 18.4868 48.2858 18.0971 48.2858 17.698ZM45.237 16.5328L40.2227 6.04538H11.7774L6.76312 16.5328H45.237ZM45.867 18.8633C45.4081 20.2211 44.1699 21.1938 42.7144 21.1938C41.2589 21.1938 40.0206 20.2211 39.5617 18.8633H45.867ZM34.7241 18.8633H28.4189C28.8778 20.2211 30.116 21.1938 31.5715 21.1938C33.027 21.1938 34.2652 20.2211 34.7241 18.8633ZM23.5813 18.8633H17.276C17.7349 20.2211 18.9731 21.1938 20.4286 21.1938C21.8841 21.1938 23.1224 20.2211 23.5813 18.8633ZM12.4384 18.8633H6.13314C6.59205 20.2211 7.83028 21.1938 9.28578 21.1938C10.7413 21.1938 11.9795 20.2211 12.4384 18.8633Z" fill="#5B63FF"/>
<path fill-rule="evenodd" clip-rule="evenodd" d="M29.4891 36.9517V47.2374H37.3679V36.9517H29.4891ZM28.3636 34.666C27.742 34.666 27.238 35.1777 27.238 35.8089V48.3803C27.238 49.0115 27.742 49.5231 28.3636 49.5231H38.4934C39.1151 49.5231 39.619 49.0115 39.619 48.3803V35.8089C39.619 35.1777 39.1151 34.666 38.4934 34.666H28.3636Z" fill="#5B63FF"/>
<path fill-rule="evenodd" clip-rule="evenodd" d="M14.6319 28.4762V32.1905H22.5107V28.4762H14.6319ZM13.5064 26C12.8848 26 12.3809 26.5543 12.3809 27.2381V33.4286C12.3809 34.1124 12.8848 34.6667 13.5064 34.6667H23.6363C24.2579 34.6667 24.7618 34.1124 24.7618 33.4286V27.2381C24.7618 26.5543 24.2579 26 23.6363 26H13.5064Z" fill="#5B63FF"/>
</svg>
