<svg width="52" height="52" viewBox="0 0 52 52" fill="none" xmlns="http://www.w3.org/2000/svg">
<path d="M26.1428 5.04028L38.8595 12.4471C39.2128 12.6529 39.4895 12.9411 39.6796 13.2737L42.0776 13.2737C42.0759 13.267 42.0742 13.2603 42.0724 13.2536C41.8151 12.2675 41.229 11.3689 40.3625 10.7394C40.2404 10.6507 40.1128 10.5673 39.9797 10.4898L34.2624 7.15975L31.8337 5.74514L27.263 3.08293C25.1199 1.83468 22.3795 2.57544 21.1422 4.73747L16.2685 13.2536H18.8554L23.0824 5.86755C23.7011 4.78654 25.0713 4.41615 26.1428 5.04028Z" fill="#5B63FF"/>
<path d="M35.3397 6.4419C36.4133 5.82134 37.7823 6.19627 38.3974 7.27933L40.3625 10.7394C41.229 11.3689 41.8151 12.2675 42.0724 13.2536H44.3726L40.3413 6.1557C39.111 3.98957 36.3731 3.23971 34.2259 4.48084L32.721 5.27159L31.8337 5.74514L34.2624 7.15975L34.7828 6.7638L35.3397 6.4419Z" fill="#5B63FF"/>
<path fill-rule="evenodd" clip-rule="evenodd" d="M47.2833 24.5544V17.7739C47.2833 16.5257 46.2803 15.5138 45.043 15.5138H6.9568C5.71948 15.5138 4.71644 16.5257 4.71644 17.7739V43.7658C4.71644 45.014 5.71948 46.0259 6.9568 46.0259H45.043C46.2803 46.0259 47.2833 45.014 47.2833 43.7658V36.9853H42.8026C39.7093 36.9853 37.2017 34.4555 37.2017 31.3349V30.2048C37.2017 27.0842 39.7093 24.5544 42.8026 24.5544H47.2833ZM47.2833 34.7251H42.8026C40.9466 34.7251 39.4421 33.2073 39.4421 31.3349V30.2048C39.4421 28.3324 40.9466 26.8146 42.8026 26.8146H47.2833V34.7251ZM49.5237 43.7658C49.5237 46.2623 47.5176 48.2861 45.043 48.2861H6.9568C4.48216 48.2861 2.47607 46.2623 2.47607 43.7658V17.7739C2.47607 15.2774 4.48216 13.2536 6.9568 13.2536H45.043C47.5176 13.2536 49.5237 15.2774 49.5237 17.7739V43.7658Z" fill="#5B63FF"/>
</svg>
